<?xml version="1.0" standalone="no"?>
<!DOCTYPE svg PUBLIC "-//W3C//DTD SVG 20010904//EN"
 "http://www.w3.org/TR/2001/REC-SVG-20010904/DTD/svg10.dtd">
<svg version="1.0" xmlns="http://www.w3.org/2000/svg"
 width="640.000000pt" height="640.000000pt" viewBox="0 0 640.000000 640.000000"
 preserveAspectRatio="xMidYMid meet">
<metadata>
Created by potrace 1.14, written by Peter Selinger 2001-2017
</metadata>
<g transform="translate(0.000000,640.000000) scale(0.100000,-0.100000)"
fill="#000000" stroke="none">
<path d="M5608 6105 c-2 -2 -39 -7 -83 -10 -44 -4 -87 -8 -95 -10 -38 -5 -106
-17 -120 -19 -8 -2 -33 -6 -55 -10 -159 -29 -415 -105 -440 -130 -10 -10 -25
-11 -54 -6 -35 6 -43 4 -68 -20 -15 -15 -100 -63 -188 -107 -186 -93 -262
-134 -400 -216 -422 -253 -825 -580 -1145 -928 -56 -61 -70 -82 -70 -105 0
-14 -8 -25 -21 -29 -25 -8 -78 -58 -104 -99 -10 -15 -37 -36 -59 -47 -34 -16
-169 -116 -251 -187 -31 -27 -192 -142 -199 -142 -3 0 -26 -13 -52 -29 -60
-39 -198 -88 -296 -107 -159 -30 -468 -22 -667 17 -53 11 -53 11 -88 -23 -19
-18 -42 -46 -50 -63 -9 -16 -55 -70 -103 -120 -48 -49 -105 -110 -126 -135
-21 -24 -48 -54 -59 -66 -11 -12 -36 -41 -55 -64 -19 -23 -40 -47 -45 -54 -6
-6 -45 -53 -85 -105 -173 -219 -343 -481 -503 -776 -78 -143 -91 -178 -76
-206 9 -17 14 -17 144 0 44 6 103 13 130 16 152 17 204 23 258 31 21 3 43 1
50 -5 12 -9 106 -14 508 -25 l116 -3 88 141 c185 295 206 316 318 311 82 -4
231 -16 235 -20 2 -2 24 3 49 10 l45 14 -7 -26 c-3 -14 -8 -44 -11 -66 -3 -23
-12 -52 -20 -64 l-14 -23 -42 30 c-22 17 -47 30 -55 30 -8 0 -60 -44 -115 -97
-183 -178 -178 -167 -128 -246 l29 -46 -94 -66 c-52 -36 -123 -76 -157 -88
-58 -20 -129 -74 -139 -104 -2 -7 -24 -17 -49 -21 -32 -6 -58 -21 -90 -50 -24
-23 -47 -42 -52 -42 -4 0 -19 -16 -34 -35 -20 -27 -26 -46 -26 -83 0 -48 0
-48 -55 -77 -69 -36 -97 -73 -133 -176 -18 -49 -40 -92 -54 -104 -13 -11 -44
-37 -69 -57 -65 -54 -84 -102 -91 -225 -3 -57 -10 -111 -15 -122 -6 -10 -27
-22 -48 -26 -68 -13 -123 -70 -123 -129 0 -13 9 -45 20 -71 11 -26 17 -51 14
-57 -3 -5 -6 -36 -5 -68 0 -47 -4 -65 -25 -96 -37 -55 -44 -78 -49 -168 -7
-119 -14 -154 -46 -228 -46 -106 -34 -120 42 -52 52 45 116 80 174 93 65 15
69 15 212 7 121 -8 122 -8 173 20 28 15 74 54 102 86 35 41 58 58 75 58 40 0
144 40 191 73 41 30 49 32 114 29 65 -3 75 0 143 38 41 22 95 47 122 56 26 9
64 31 83 50 34 33 47 53 89 145 19 42 28 49 79 68 75 29 98 50 183 173 40 57
75 105 78 108 15 13 104 124 174 217 57 75 85 104 105 109 15 3 35 8 44 12 30
12 248 234 248 252 0 16 148 145 157 137 1 -2 5 -30 8 -63 12 -117 13 -129 15
-129 11 0 2 -68 -12 -96 -22 -46 -57 -74 -244 -194 -155 -101 -186 -124 -180
-134 2 -3 7 -53 10 -111 14 -229 16 -258 23 -340 9 -105 9 -184 -1 -275 -13
-121 -15 -138 -21 -215 -4 -41 -7 -77 -8 -80 -4 -18 15 -89 27 -99 13 -11 61
10 156 69 44 28 146 87 155 91 26 11 375 241 408 269 7 6 46 36 87 67 147 112
254 204 499 430 31 29 67 58 81 65 51 27 113 87 106 104 -2 6 -7 33 -11 60 -4
27 -9 60 -12 74 -3 14 -7 111 -9 215 -5 247 17 365 96 525 71 145 204 315 297
379 90 62 224 161 243 179 8 8 15 22 16 30 3 20 18 28 68 37 22 5 44 9 49 10
4 1 13 3 21 4 8 0 21 18 29 39 9 21 33 53 54 72 136 117 366 357 519 540 86
103 232 296 306 405 113 166 213 334 332 559 17 32 41 58 66 73 l40 24 -7 60
c-5 50 -3 64 14 87 33 46 132 366 157 507 3 17 8 44 10 60 3 17 7 46 10 65 12
107 19 138 30 134 8 -3 13 11 15 43 1 26 4 49 6 52 2 2 0 13 -6 24 -8 14 -8
18 0 13 6 -4 11 -1 11 8 0 8 -6 16 -12 19 -10 3 -10 7 1 20 11 14 11 17 0 17
-9 0 -10 3 -4 8 14 10 15 112 2 112 -7 0 -7 4 1 12 16 16 15 31 0 22 -10 -6
-10 -4 -2 7 15 19 6 120 -11 138 -8 7 1 -45 10 -59 3 -5 2 -10 -3 -10 -6 0
-18 36 -28 80 -10 44 -22 80 -26 80 -4 0 -8 6 -8 13 0 23 -64 79 -117 103 -84
37 -191 52 -374 52 -92 0 -169 -1 -171 -3z m727 -365 c2 -12 1 -20 -2 -16 -4
4 -8 16 -10 28 -4 28 6 18 12 -12z m-7 -335 c0 -19 -4 -35 -9 -35 -5 0 -7 10
-5 23 3 12 5 28 5 35 2 28 9 9 9 -23z"/>
<path d="M6310 5279 c0 -5 5 -7 10 -4 6 3 10 8 10 11 0 2 -4 4 -10 4 -5 0 -10
-5 -10 -11z"/>
<path d="M516 1526 c-35 -29 -41 -64 -16 -103 17 -28 26 -33 58 -33 27 0 44 7
59 23 30 33 33 50 16 85 -23 48 -77 61 -117 28z"/>
<path d="M452 1211 c-13 -37 -2 -53 33 -49 21 2 29 9 32 27 7 52 -48 71 -65
22z"/>
<path d="M1368 402 c-38 -23 -55 -75 -35 -106 21 -31 58 -24 92 16 29 34 32
69 9 92 -20 20 -32 20 -66 -2z"/>
</g>
</svg>
